<?xml version="1.0" standalone="no"?>
<!DOCTYPE svg PUBLIC "-//W3C//DTD SVG 20010904//EN"
 "http://www.w3.org/TR/2001/REC-SVG-20010904/DTD/svg10.dtd">
<svg version="1.0" xmlns="http://www.w3.org/2000/svg"
 width="122.000000pt" height="157.000000pt" viewBox="0 0 122.000000 157.000000"
 preserveAspectRatio="xMidYMid meet">

<g transform="translate(0.000000,157.000000) scale(0.100000,-0.100000)"
fill="#000000" stroke="none">
<path d="M483 1545 c-107 -23 -189 -70 -278 -160 -148 -147 -203 -327 -161
-526 18 -86 185 -421 221 -445 21 -14 25 -24 25 -64 0 -47 20 -80 48 -80 7 0
12 -16 12 -39 0 -41 31 -91 56 -91 10 0 14 -13 14 -49 0 -76 13 -81 190 -81
177 0 190 5 190 81 0 36 4 49 14 49 25 0 56 50 56 91 0 26 5 39 13 39 27 0 47
36 47 82 0 38 4 49 25 62 36 24 203 359 221 445 42 199 -13 379 -161 526 -148
149 -331 204 -532 160z m242 -131 c196 -50 335 -233 335 -439 0 -84 -21 -146
-101 -307 l-69 -138 -280 0 -280 0 -69 138 c-80 161 -101 223 -101 307 0 298
278 514 565 439z m145 -1049 l0 -35 -260 0 -260 0 0 35 0 35 260 0 260 0 0
-35z m-70 -130 l0 -35 -190 0 -190 0 0 35 0 35 190 0 190 0 0 -35z m-60 -130
l0 -35 -130 0 -130 0 0 35 0 35 130 0 130 0 0 -35z"/>
<path d="M610 1335 c0 -32 2 -35 30 -35 132 0 290 -158 290 -290 0 -28 3 -30
35 -30 19 0 35 1 35 3 0 36 -29 136 -52 180 -51 95 -158 176 -254 192 -21 3
-49 8 -61 11 -20 4 -23 0 -23 -31z"/>
</g>
</svg>
