<?xml version="1.0" standalone="no"?>
<!DOCTYPE svg PUBLIC "-//W3C//DTD SVG 20010904//EN"
 "http://www.w3.org/TR/2001/REC-SVG-20010904/DTD/svg10.dtd">
<svg version="1.0" xmlns="http://www.w3.org/2000/svg"
 width="178.000000pt" height="164.000000pt" viewBox="0 0 178.000000 164.000000"
 preserveAspectRatio="xMidYMid meet">

<g transform="translate(0.000000,164.000000) scale(0.100000,-0.100000)"
fill="#000000" stroke="none">
<path d="M183 1473 c3 -10 10 -36 16 -58 9 -34 53 -82 276 -305 l265 -265
-264 -265 c-170 -170 -267 -275 -271 -293 -4 -15 -4 -42 -1 -60 14 -73 103
-109 168 -69 18 12 136 125 263 251 l230 231 255 -254 c219 -218 260 -255 293
-261 96 -18 173 86 121 165 -9 14 -126 135 -261 270 l-243 245 50 50 50 49 98
1 c110 0 142 11 217 77 110 97 133 214 64 327 l-21 34 -101 -100 c-56 -56
-112 -106 -124 -112 -44 -22 -94 28 -72 72 6 12 56 68 112 124 l100 101 -34
21 c-54 33 -98 44 -151 38 -65 -8 -125 -44 -182 -109 -61 -70 -80 -129 -73
-228 l5 -78 -72 -71 -71 -71 -265 265 c-223 223 -271 267 -305 276 -22 6 -48
13 -58 16 -15 4 -18 1 -14 -14z m1114 -51 c9 -5 -11 -31 -63 -82 -86 -85 -104
-114 -104 -166 0 -53 53 -104 107 -104 47 0 89 28 178 119 65 67 75 66 75 -7
0 -56 -29 -111 -82 -157 -81 -70 -144 -86 -231 -61 -106 31 -179 143 -162 249
12 75 77 162 150 200 32 17 111 22 132 9z m-256 -443 l41 -41 -66 -67 -66 -66
-42 43 -43 42 65 65 c35 36 66 65 67 65 2 0 22 -19 44 -41z m-216 -219 l39
-40 -189 -190 c-104 -105 -194 -190 -199 -190 -14 0 -76 61 -76 74 0 11 370
386 380 386 3 0 24 -18 45 -40z m487 -402 l-42 -43 -180 180 -180 180 42 42
43 43 180 -180 180 -180 -43 -42z m-917 -29 l40 -40 -47 -45 c-33 -31 -55 -44
-75 -44 -67 0 -72 60 -12 125 23 25 45 45 48 45 4 0 25 -18 46 -41z m1054 -24
c44 -48 52 -83 25 -109 -26 -27 -61 -19 -109 25 -25 23 -45 46 -45 52 0 15 61
77 76 77 6 0 30 -20 53 -45z"/>
</g>
</svg>
