<?xml version="1.0" standalone="no"?>
<!DOCTYPE svg PUBLIC "-//W3C//DTD SVG 20010904//EN"
 "http://www.w3.org/TR/2001/REC-SVG-20010904/DTD/svg10.dtd">
<svg version="1.0" xmlns="http://www.w3.org/2000/svg"
 width="152.000000pt" height="153.000000pt" viewBox="0 0 152.000000 153.000000"
 preserveAspectRatio="xMidYMid meet">

<g transform="translate(0.000000,153.000000) scale(0.100000,-0.100000)"
fill="#000000" stroke="none">
<path d="M675 1504 c-11 -2 -45 -9 -75 -15 -261 -52 -493 -283 -561 -559 -18
-71 -18 -269 0 -340 68 -275 286 -493 561 -561 31 -8 106 -14 170 -14 64 0
139 6 170 14 275 68 493 286 561 561 18 71 18 269 0 340 -67 268 -276 484
-540 555 -56 15 -248 28 -286 19z m37 -171 c3 -40 7 -50 31 -63 24 -13 30 -13
55 0 23 13 27 23 30 64 l3 48 42 -6 c121 -19 272 -99 352 -187 84 -93 144
-214 161 -326 l6 -42 -48 -3 c-41 -3 -51 -7 -64 -30 -13 -25 -13 -31 0 -55 13
-24 23 -28 64 -31 l48 -3 -6 -42 c-17 -109 -75 -228 -156 -320 -76 -88 -237
-175 -352 -192 l-47 -7 -3 48 c-3 41 -7 51 -30 64 -25 13 -31 13 -55 0 -24
-13 -28 -23 -31 -64 l-3 -48 -47 7 c-115 17 -276 104 -352 192 -81 92 -139
211 -156 320 l-6 42 48 3 c41 3 51 7 64 31 13 24 13 30 0 55 -13 23 -23 27
-64 30 l-48 3 7 45 c34 231 221 435 455 498 93 25 98 23 102 -31z"/>
<path d="M715 888 l-340 -171 132 -44 132 -44 44 -132 44 -132 172 342 c94
189 171 345 171 348 0 11 -25 -1 -355 -167z m215 27 c0 -3 -43 -92 -97 -198
l-96 -192 -25 76 -25 76 -76 25 -76 25 190 96 c185 94 205 102 205 92z"/>
</g>
</svg>
