<?xml version="1.0" standalone="no"?>
<!DOCTYPE svg PUBLIC "-//W3C//DTD SVG 20010904//EN"
 "http://www.w3.org/TR/2001/REC-SVG-20010904/DTD/svg10.dtd">
<svg version="1.0" xmlns="http://www.w3.org/2000/svg"
 width="168.000000pt" height="146.000000pt" viewBox="0 0 168.000000 146.000000"
 preserveAspectRatio="xMidYMid meet">

<g transform="translate(0.000000,146.000000) scale(0.100000,-0.100000)"
fill="#000000" stroke="none">
<path d="M361 1424 c-231 -62 -377 -306 -317 -529 31 -116 49 -139 429 -514
l362 -359 30 25 c16 14 182 176 368 361 288 287 342 344 368 397 83 170 55
357 -76 494 -63 66 -126 104 -210 126 -150 39 -311 -3 -423 -111 l-52 -50 -50
47 c-112 109 -280 153 -429 113z m248 -139 c35 -17 86 -57 143 -112 l88 -87
88 86 c109 109 166 138 268 138 104 0 157 -22 231 -95 73 -73 98 -138 91 -239
-7 -112 -23 -132 -361 -466 -170 -168 -313 -305 -317 -305 -4 0 -149 139 -322
310 -293 288 -317 314 -337 368 -51 138 -7 291 106 368 63 44 109 58 193 58
60 1 86 -4 129 -24z"/>
<path d="M1180 1141 c0 -24 6 -31 46 -46 76 -29 107 -112 68 -187 -15 -29 -15
-32 4 -51 25 -24 39 -16 63 37 44 98 5 207 -93 257 -21 10 -49 19 -63 19 -21
0 -25 -5 -25 -29z"/>
</g>
</svg>
